<mxfile host="app.diagrams.net" modified="2024-03-14T01:49:43.132Z" agent="Mozilla/5.0 (Macintosh; Intel Mac OS X 10_15_7) AppleWebKit/605.1.15 (KHTML, like Gecko) Version/17.2.1 Safari/605.1.15" version="24.0.0" etag="L3jeUyH4QAxQ3HXQLGsY" type="github">
  <diagram name="Trang-1" id="W8cD8fDywQNzkh2EEArX">
    <mxGraphModel>
      <root>
        <mxCell id="0" />
        <mxCell id="1" parent="0" />
      </root>
    </mxGraphModel>
  </diagram>
</mxfile>
